<?xml version="1.0" standalone="no"?>
<!DOCTYPE svg PUBLIC "-//W3C//DTD SVG 20010904//EN"
 "http://www.w3.org/TR/2001/REC-SVG-20010904/DTD/svg10.dtd">
<svg version="1.0" xmlns="http://www.w3.org/2000/svg"
 width="1200.000000pt" height="630.000000pt" viewBox="0 0 1200.000000 630.000000"
 preserveAspectRatio="xMidYMid meet">

<g transform="translate(0.000000,630.000000) scale(0.100000,-0.100000)"
fill="#305680" stroke="none">
<path d="M4510 3715 l0 -425 50 0 50 0 0 215 c0 238 2 246 65 285 36 22 109
27 149 9 49 -23 56 -57 56 -293 l0 -216 50 0 50 0 0 213 c0 116 -5 232 -11
256 -21 94 -75 134 -179 135 -68 0 -113 -16 -157 -57 l-23 -20 0 161 0 162
-50 0 -50 0 0 -425z"/>
<path d="M10030 3985 c0 -85 -4 -155 -9 -155 -5 0 -14 7 -22 16 -25 31 -74 48
-139 48 -99 1 -161 -42 -209 -144 -22 -48 -26 -68 -26 -155 0 -153 44 -248
136 -295 71 -37 189 -21 246 32 l23 21 0 -31 c0 -32 1 -32 50 -32 l50 0 0 425
0 425 -50 0 -50 0 0 -155z m-70 -190 c62 -32 70 -54 70 -202 0 -153 -8 -177
-70 -212 -77 -43 -163 -19 -208 58 -25 42 -27 55 -27 146 1 115 22 171 78 205
39 24 116 26 157 5z"/>
<path d="M5170 4097 c-35 -17 -40 -69 -8 -91 27 -19 49 -20 70 -3 30 23 31 55
4 82 -29 29 -32 29 -66 12z"/>
<path d="M3780 4050 l0 -40 130 0 130 0 0 -360 0 -360 50 0 50 0 0 360 0 360
130 0 130 0 0 40 0 40 -310 0 -310 0 0 -40z"/>
<path d="M7290 3691 l0 -401 173 0 c195 0 252 11 303 58 52 47 68 88 69 169 0
63 -3 76 -30 114 -16 23 -47 51 -68 62 l-38 20 29 17 c70 43 102 120 84 201
-15 65 -43 104 -95 132 -39 20 -58 22 -234 25 l-193 4 0 -401z m354 305 c47
-20 66 -51 66 -112 0 -101 -53 -134 -215 -134 l-105 0 0 130 0 130 110 0 c72
0 122 -5 144 -14z m23 -349 c42 -22 65 -68 65 -127 0 -113 -56 -149 -229 -150
l-113 0 0 143 c0 79 3 147 8 151 4 4 59 6 122 4 84 -3 124 -8 147 -21z"/>
<path d="M2550 3999 c-69 -10 -201 -52 -259 -83 l-45 -23 -32 19 c-46 27 -128
27 -182 -1 -87 -45 -128 -168 -84 -254 l20 -38 -35 -75 c-39 -86 -69 -200 -76
-292 -4 -50 -2 -66 13 -84 15 -19 21 -21 43 -11 22 10 26 20 32 80 10 100 31
184 64 257 l29 64 64 -5 c49 -4 74 -1 101 12 82 38 128 130 109 214 l-10 43
62 29 c76 35 154 56 248 65 78 7 98 16 98 45 0 46 -41 56 -160 38z m-385 -163
c99 -42 71 -196 -37 -196 -50 0 -74 13 -93 50 -31 60 -11 120 49 146 39 17 40
17 81 0z"/>
<path d="M5620 3885 c-26 -8 -57 -26 -70 -40 -32 -34 -40 -32 -40 11 l0 35
-47 -3 -48 -3 -3 -297 -2 -298 50 0 50 0 0 214 0 214 26 32 c36 43 74 60 133
60 65 0 99 -28 112 -90 4 -25 8 -132 9 -237 l0 -193 46 0 45 0 -3 248 c-3 236
-4 249 -26 283 -40 65 -143 93 -232 64z"/>
<path d="M6189 3887 c-64 -24 -97 -55 -131 -125 -31 -62 -33 -74 -33 -167 0
-202 83 -315 232 -315 57 0 133 26 147 49 33 52 30 -76 -2 -131 -48 -83 -192
-90 -273 -12 l-25 24 -27 -28 -28 -29 28 -28 c83 -84 254 -98 354 -29 20 14
49 48 65 77 l29 52 3 333 3 332 -44 0 c-47 0 -57 -10 -57 -53 0 -20 -1 -20
-27 5 -16 14 -38 31 -49 37 -36 18 -126 23 -165 8z m171 -92 c61 -31 70 -59
70 -208 0 -132 -1 -136 -26 -167 -75 -88 -194 -79 -252 19 -25 42 -27 55 -27
146 0 84 4 107 23 143 13 23 37 52 55 62 39 24 116 26 157 5z"/>
<path d="M6812 3881 c-93 -32 -143 -104 -128 -184 13 -72 67 -109 210 -145 88
-23 123 -43 136 -78 26 -66 -27 -114 -125 -114 -74 0 -118 24 -136 74 -12 34
-15 36 -61 36 -38 0 -48 -3 -48 -17 0 -34 42 -102 79 -127 50 -35 92 -46 176
-46 119 0 209 60 216 145 5 68 -1 87 -38 125 -39 37 -72 52 -201 90 -40 11
-82 30 -92 40 -64 64 39 161 139 131 40 -11 91 -61 91 -87 0 -10 13 -14 50
-14 58 0 61 9 31 77 -23 49 -76 87 -141 102 -64 15 -97 13 -158 -8z"/>
<path d="M8167 3890 c-82 -21 -141 -71 -179 -155 -33 -72 -33 -228 0 -300 46
-100 130 -155 236 -155 89 0 134 17 193 76 62 62 83 121 83 236 0 129 -47 222
-138 271 -55 30 -137 41 -195 27z m129 -89 c74 -33 105 -98 106 -213 0 -99
-31 -173 -86 -208 -31 -19 -47 -22 -98 -18 -56 4 -64 8 -99 45 -47 51 -62 106
-57 204 6 97 37 157 100 188 52 26 81 26 134 2z"/>
<path d="M8815 3893 c-95 -21 -155 -71 -179 -150 -7 -22 -5 -23 42 -23 46 0
50 2 63 31 14 35 74 68 122 69 39 0 92 -24 111 -51 9 -14 16 -43 16 -70 l0
-46 -103 -5 c-121 -7 -176 -26 -224 -81 -35 -40 -49 -89 -40 -144 8 -45 27
-75 74 -110 31 -24 47 -28 112 -31 72 -3 79 -1 133 31 l57 35 3 -27 c3 -24 7
-26 57 -29 52 -3 53 -2 46 20 -4 13 -10 122 -14 243 -4 142 -10 227 -18 241
-43 75 -160 119 -258 97z m175 -382 c0 -64 -2 -72 -31 -100 -60 -60 -162 -66
-211 -11 -36 40 -37 87 -3 128 30 36 76 50 173 51 l72 1 0 -69z"/>
<path d="M9445 3885 c-22 -8 -50 -26 -62 -39 l-22 -26 -3 33 c-3 31 -5 32 -50
35 l-48 3 0 -300 0 -301 50 0 50 0 0 219 c0 218 0 218 25 245 31 33 64 46 121
46 l44 0 0 44 c0 59 -25 69 -105 41z"/>
<path d="M5150 3591 l0 -301 50 0 50 0 -2 298 -3 297 -47 3 -48 3 0 -300z"/>
<path d="M2963 3648 l-62 -62 -60 57 c-35 34 -68 57 -81 57 -14 0 -51 -28 -99
-75 l-77 -75 -60 61 c-45 46 -65 59 -84 57 -19 -2 -26 -10 -28 -32 -3 -24 6
-39 54 -87 l58 -59 -69 -70 -69 -69 -62 59 c-34 33 -69 60 -77 60 -18 0 -47
-26 -47 -43 0 -6 28 -40 62 -74 l62 -63 -73 -74 c-92 -92 -94 -107 -22 -180
28 -28 51 -56 51 -62 0 -5 -25 -34 -55 -64 -43 -42 -55 -61 -53 -80 2 -19 10
-26 32 -28 24 -3 39 6 87 54 l59 58 55 -54 55 -54 -61 -62 c-46 -47 -60 -67
-57 -85 2 -18 10 -25 32 -27 24 -3 39 6 87 54 l58 58 60 -57 c35 -34 68 -57
81 -57 14 0 51 28 99 75 l77 74 61 -61 c52 -52 65 -60 87 -54 45 11 35 51 -31
118 l-57 58 69 70 69 69 62 -59 c34 -33 69 -60 77 -60 18 0 47 26 47 42 0 5
-28 39 -62 74 l-61 64 71 74 c92 95 93 110 17 186 l-55 54 60 61 c67 67 76 98
35 117 -24 11 -30 7 -90 -52 l-65 -64 -55 54 -54 54 59 62 c33 34 60 69 60 77
0 18 -27 47 -43 47 -7 0 -40 -28 -74 -62z m-100 -213 c64 -51 71 -73 30 -103
l-26 -19 16 -64 c23 -91 17 -97 -136 -144 l-125 -38 25 -89 c27 -99 24 -125
-14 -134 -39 -10 -54 15 -88 149 -26 103 -28 118 -15 132 8 8 69 31 135 51 66
20 121 38 123 39 2 2 0 20 -4 40 -5 31 -10 36 -27 31 -30 -7 -57 11 -57 39 0
29 46 136 63 147 23 15 42 8 100 -37z"/>
<path d="M3497 3136 c-8 -8 -17 -45 -20 -88 -8 -92 -30 -175 -65 -247 l-27
-56 -66 3 c-135 7 -215 -73 -207 -205 l4 -65 -45 -22 c-73 -37 -143 -56 -247
-69 -83 -11 -98 -16 -105 -34 -5 -13 -2 -28 8 -43 15 -21 20 -22 92 -15 104
10 208 38 291 78 60 30 71 33 88 21 66 -46 181 -32 240 29 60 62 73 174 28
238 -11 16 -8 28 20 86 41 85 72 197 80 294 6 63 4 78 -10 92 -21 21 -40 22
-59 3z m-138 -492 c13 -9 29 -31 36 -48 44 -105 -90 -189 -167 -106 -61 66
-18 170 69 170 21 0 49 -7 62 -16z"/>
<path d="M4777 3024 c-4 -4 -7 -72 -7 -151 0 -78 -2 -143 -5 -143 -2 0 -25 15
-50 32 -40 28 -54 33 -103 32 -140 -2 -208 -102 -200 -292 4 -111 28 -170 86
-209 69 -46 152 -40 231 18 23 16 43 29 46 29 3 0 5 -16 5 -35 0 -33 2 -35 35
-35 l35 0 -2 378 -3 377 -30 3 c-17 2 -34 0 -38 -4z m-76 -329 c63 -47 69 -61
69 -163 0 -103 -8 -121 -72 -169 -35 -25 -104 -31 -140 -12 -51 27 -79 190
-49 282 28 83 121 114 192 62z"/>
<path d="M3938 2973 c-17 -4 -18 -29 -18 -348 0 -303 2 -344 16 -349 9 -3 93
-6 189 -6 169 0 173 1 178 22 3 12 2 30 -4 40 -9 16 -24 18 -149 18 l-140 0 0
125 0 124 123 3 122 3 3 31 3 31 -77 6 c-42 4 -99 7 -126 7 l-48 0 0 110 0
109 143 3 142 3 0 35 0 35 -170 1 c-93 1 -178 0 -187 -3z"/>
<path d="M5131 2789 c-101 -22 -156 -131 -117 -232 15 -41 15 -45 -4 -82 -27
-52 -25 -87 5 -123 l25 -29 -21 -19 c-75 -68 -61 -166 29 -207 63 -28 196 -30
264 -4 55 21 107 76 110 115 6 119 -34 151 -212 163 -99 7 -117 10 -132 29
-12 15 -15 27 -9 43 9 23 8 23 102 11 97 -13 180 41 200 130 9 43 9 58 -5 90
-9 21 -16 40 -16 42 0 2 18 4 40 4 38 0 40 2 40 30 0 17 -6 32 -12 35 -27 8
-254 12 -287 4z m128 -85 c27 -23 31 -32 31 -77 0 -62 -19 -90 -71 -106 -39
-13 -79 -3 -111 26 -39 35 -30 136 15 168 35 24 100 19 136 -11z m51 -423 c50
-36 30 -110 -37 -132 -19 -6 -66 -9 -104 -7 -54 3 -74 8 -91 25 -30 31 -26 78
9 115 28 29 28 29 113 23 57 -4 93 -13 110 -24z"/>
<path d="M5682 2791 c-60 -16 -108 -56 -139 -118 -25 -52 -28 -68 -28 -153 1
-72 5 -103 19 -130 54 -102 149 -143 283 -121 82 13 117 30 121 60 6 37 -9 41
-73 19 -70 -23 -160 -20 -201 7 -30 19 -63 87 -64 128 l0 27 163 0 c198 0 203
2 194 82 -8 84 -49 153 -109 184 -34 17 -123 26 -166 15z m129 -78 c32 -19 59
-68 59 -107 l0 -26 -135 0 c-147 0 -146 0 -124 57 13 34 47 72 74 83 34 15 96
11 126 -7z"/>
</g>
</svg>
